%
M48
M72
T01C0.0157
T02C0.0200
T03C0.0315
T04C0.0354
%
T01
X13181Y9036
X13265Y10078
X14453Y11703
X16748Y11314
X20640Y10640
X20640Y10140
X21140Y10140
X22140Y10140
X23140Y10140
X23640Y10140
X23640Y10640
X22890Y8890
X23640Y8390
X21890Y8390
X21140Y8890
X20640Y8890
X20640Y8390
X17984Y5328
X14109Y5390
X13515Y6890
X13515Y7828
X11890Y14640
X12140Y15140
X13140Y15203
X13890Y15640
X14140Y16140
X12390Y17140
X11640Y17890
X10640Y18765
X10140Y17890
X8640Y17890
X10890Y15640
X9078Y15140
X16578Y16265
X17515Y16265
X18015Y16765
X18890Y16265
X20890Y17640
T02
X14984Y12828
X14484Y12828
X13984Y12828
X13484Y12828
T03
X13140Y20390
X12140Y20390
X11140Y20390
X10140Y20390
X9140Y20390
X8140Y20390
X7140Y20390
X14140Y20390
X15890Y20390
X16890Y20390
X17890Y20390
X18890Y20390
X19890Y20390
X20890Y20390
X21890Y20390
X22890Y20390
X22890Y1390
X21890Y1390
X20890Y1390
X19890Y1390
X18890Y1390
X17890Y1390
X15890Y1390
X14890Y1390
X13890Y1390
X12890Y1390
X11890Y1390
X10890Y1390
T04
X1640Y4390
X1640Y5390
X2640Y5390
X2640Y4390
X3640Y4390
X4640Y4390
X4640Y5390
X3640Y5390
X3640Y6390
X4640Y6390
X4640Y7390
X3640Y7390
X2640Y7390
X2640Y6390
X1640Y6390
X1640Y7390
X1640Y8390
X2640Y8390
X3640Y8390
X4640Y8390
X5640Y8390
X6640Y8390
X7640Y8390
X8640Y8390
X9640Y8390
X10640Y8390
X11640Y8390
X11640Y7390
X11640Y6390
X10640Y6390
X9640Y6390
X9640Y7390
X10640Y7390
X8640Y7390
X8640Y6390
X7640Y6390
X6640Y6390
X6640Y7390
X7640Y7390
X5640Y7390
X5640Y6390
X5640Y5390
X5640Y4390
X6640Y4390
X7640Y4390
X7640Y5390
X6640Y5390
X8640Y5390
X8640Y4390
X9640Y4390
X10640Y4390
X10640Y5390
X9640Y5390
X11640Y5390
X11640Y4390
X11640Y9390
X11640Y10390
X10640Y10390
X9640Y10390
X9640Y9390
X10640Y9390
X8640Y9390
X8640Y10390
X7640Y10390
X6640Y10390
X6640Y9390
X7640Y9390
X5640Y9390
X5640Y10390
X4640Y10390
X3640Y10390
X3640Y9390
X4640Y9390
X2640Y9390
X2640Y10390
X1640Y10390
X1640Y9390
X1640Y11390
X1640Y12390
X2640Y12390
X2640Y11390
X3640Y11390
X4640Y11390
X4640Y12390
X3640Y12390
X3640Y13390
X4640Y13390
X5640Y13390
X6640Y13390
X7640Y13390
X8640Y13390
X9640Y13390
X10640Y13390
X11640Y13390
X11640Y12390
X11640Y11390
X10640Y11390
X9640Y11390
X9640Y12390
X10640Y12390
X8640Y12390
X8640Y11390
X7640Y11390
X6640Y11390
X6640Y12390
X7640Y12390
X5640Y12390
X5640Y11390
X2640Y13390
X1640Y13390
X1640Y14390
X1640Y15390
X2640Y15390
X2640Y14390
X3640Y14390
X4640Y14390
X4640Y15390
X3640Y15390
X3640Y16390
X4640Y16390
X4640Y17390
X3640Y17390
X2640Y17390
X2640Y16390
X1640Y16390
X1640Y17390
X1640Y18390
X2640Y18390
X3640Y18390
X4640Y18390
X5640Y18390
X6640Y18390
X6640Y17390
X6640Y16390
X5640Y16390
X5640Y17390
X5640Y15390
X5640Y14390
X6640Y14390
X6640Y15390
X6640Y19390
X5640Y19390
X4640Y19390
X3640Y19390
X2640Y19390
X1640Y19390
M30
