%
M48
M72
T01C0.0157
T02C0.0200
T03C0.0315
T04C0.0354
%
T01
X14890Y15140
X14890Y15640
X13640Y16140
X11828Y15640
X11390Y18390
X12890Y18390
X13390Y19265
X14390Y18390
X15140Y17640
X16890Y16640
X19328Y16765
X20265Y16765
X20765Y17265
X21640Y16765
X21890Y15640
X22953Y15515
X23571Y15521
X24140Y15890
X22953Y16140
X23640Y18140
X19453Y15015
X19390Y11140
X23015Y8640
X23265Y8265
X23515Y7890
X24015Y7640
X24515Y7640
X25015Y7640
X25515Y7640
X25890Y7390
X25890Y6890
X25890Y6390
X25890Y5890
X25390Y5890
X24890Y5890
X24640Y5515
X24640Y5015
X25015Y4890
X26890Y6015
X27265Y5640
X26890Y6515
X26890Y7515
X26765Y7890
X26515Y8265
X26140Y8515
X25640Y8640
X25140Y8640
X24640Y8640
X24140Y8640
X25376Y12376
T02
X26890Y14140
X26890Y14640
X26890Y15140
X26890Y15640
T03
X25640Y20640
X24640Y20640
X23640Y20640
X22640Y20640
X21640Y20640
X20640Y20640
X19640Y20640
X18640Y20640
X16890Y20640
X15890Y20640
X14890Y20640
X13890Y20640
X12890Y20640
X11890Y20640
X10890Y20640
X9890Y20640
X13640Y1640
X14640Y1640
X15640Y1640
X16640Y1640
X17640Y1640
X18640Y1640
X20640Y1640
X21640Y1640
X22640Y1640
X23640Y1640
X24640Y1640
X25640Y1640
T04
X2640Y4640
X3640Y4640
X4640Y4640
X5640Y4640
X6640Y4640
X7640Y4640
X8640Y4640
X9640Y4640
X10640Y4640
X11640Y4640
X12640Y4640
X13640Y4640
X14640Y4640
X15640Y4640
X16640Y4640
X16640Y5640
X16640Y6640
X15640Y6640
X14640Y6640
X14640Y5640
X15640Y5640
X13640Y5640
X12640Y5640
X12640Y6640
X13640Y6640
X13640Y7640
X12640Y7640
X12640Y8640
X13640Y8640
X14640Y8640
X15640Y8640
X15640Y7640
X14640Y7640
X16640Y7640
X16640Y8640
X16640Y9640
X16640Y10640
X15640Y10640
X14640Y10640
X14640Y9640
X15640Y9640
X13640Y9640
X12640Y9640
X12640Y10640
X13640Y10640
X13640Y11640
X12640Y11640
X12640Y12640
X13640Y12640
X14640Y12640
X15640Y12640
X15640Y11640
X14640Y11640
X16640Y11640
X16640Y12640
X16640Y13640
X15640Y13640
X14640Y13640
X13640Y13640
X12640Y13640
X11640Y13640
X10640Y13640
X9640Y13640
X8640Y13640
X8640Y14640
X9640Y14640
X9640Y15640
X8640Y15640
X8640Y16640
X9640Y16640
X9640Y17640
X8640Y17640
X8640Y18640
X9640Y18640
X9640Y19640
X8640Y19640
X7640Y19640
X6640Y19640
X5640Y19640
X4640Y19640
X3640Y19640
X2640Y19640
X2640Y18640
X3640Y18640
X3640Y17640
X2640Y17640
X2640Y16640
X3640Y16640
X3640Y15640
X2640Y15640
X2640Y14640
X3640Y14640
X3640Y13640
X2640Y13640
X2640Y12640
X3640Y12640
X3640Y11640
X2640Y11640
X2640Y10640
X3640Y10640
X3640Y9640
X2640Y9640
X2640Y8640
X3640Y8640
X3640Y7640
X2640Y7640
X2640Y6640
X3640Y6640
X3640Y5640
X2640Y5640
X4640Y5640
X5640Y5640
X5640Y6640
X4640Y6640
X4640Y7640
X5640Y7640
X5640Y8640
X4640Y8640
X4640Y9640
X5640Y9640
X5640Y10640
X4640Y10640
X4640Y11640
X5640Y11640
X5640Y12640
X4640Y12640
X4640Y13640
X5640Y13640
X5640Y14640
X4640Y14640
X4640Y15640
X5640Y15640
X5640Y16640
X4640Y16640
X4640Y17640
X5640Y17640
X5640Y18640
X4640Y18640
X6640Y18640
X7640Y18640
X7640Y17640
X6640Y17640
X6640Y16640
X7640Y16640
X7640Y15640
X6640Y15640
X6640Y14640
X7640Y14640
X7640Y13640
X6640Y13640
X6640Y12640
X7640Y12640
X7640Y11640
X6640Y11640
X6640Y10640
X7640Y10640
X7640Y9640
X6640Y9640
X6640Y8640
X7640Y8640
X7640Y7640
X6640Y7640
X6640Y6640
X7640Y6640
X7640Y5640
X6640Y5640
X8640Y5640
X9640Y5640
X9640Y6640
X8640Y6640
X8640Y7640
X9640Y7640
X9640Y8640
X8640Y8640
X8640Y9640
X9640Y9640
X9640Y10640
X8640Y10640
X8640Y11640
X9640Y11640
X9640Y12640
X8640Y12640
X10640Y12640
X11640Y12640
X11640Y11640
X10640Y11640
X10640Y10640
X11640Y10640
X11640Y9640
X10640Y9640
X10640Y8640
X11640Y8640
X11640Y7640
X10640Y7640
X10640Y6640
X11640Y6640
X11640Y5640
X10640Y5640
M30
