G75*
G70*
%OFA0B0*%
%FSLAX24Y24*%
%IPPOS*%
%LPD*%
%AMOC8*
5,1,8,0,0,1.08239X$1,22.5*
%
%ADD10OC8,0.0560*%
%ADD11R,0.0808X0.1005*%
%ADD12R,0.0532X0.0532*%
%ADD13R,0.0336X0.0532*%
%ADD14R,0.0532X0.0336*%
%ADD15R,0.0360X0.0360*%
%ADD16R,0.0414X0.0336*%
%ADD17R,0.0336X0.0414*%
%ADD18R,0.0690X0.0520*%
%ADD19R,0.0720X0.0060*%
%ADD20R,0.0375X0.0414*%
%ADD21R,0.0532X0.0277*%
%ADD22C,0.0296*%
%ADD23R,0.0520X0.0690*%
%ADD24C,0.0454*%
%ADD25C,0.0820*%
D10*
X010890Y001390D03*
X011890Y001390D03*
X012890Y001390D03*
X013890Y001390D03*
X014890Y001390D03*
X015890Y001390D03*
X017890Y001390D03*
X018890Y001390D03*
X019890Y001390D03*
X020890Y001390D03*
X021890Y001390D03*
X022890Y001390D03*
X022890Y020390D03*
X021890Y020390D03*
X020890Y020390D03*
X019890Y020390D03*
X018890Y020390D03*
X017890Y020390D03*
X016890Y020390D03*
X015890Y020390D03*
X014140Y020390D03*
X013140Y020390D03*
X012140Y020390D03*
X011140Y020390D03*
X010140Y020390D03*
X009140Y020390D03*
X008140Y020390D03*
X007140Y020390D03*
D11*
X015566Y009095D03*
X016984Y009095D03*
X018401Y009095D03*
X018401Y007560D03*
X016984Y007560D03*
X015566Y007560D03*
D12*
X014129Y006024D03*
X014129Y010631D03*
X019838Y010631D03*
X019838Y006024D03*
D13*
X019110Y006024D03*
X018637Y006024D03*
X018165Y006024D03*
X017692Y006024D03*
X017220Y006024D03*
X016748Y006024D03*
X016275Y006024D03*
X015803Y006024D03*
X015330Y006024D03*
X014858Y006024D03*
X014858Y010631D03*
X015330Y010631D03*
X015803Y010631D03*
X016275Y010631D03*
X016748Y010631D03*
X017220Y010631D03*
X017692Y010631D03*
X018165Y010631D03*
X018637Y010631D03*
X019110Y010631D03*
D14*
X019838Y009981D03*
X019838Y009509D03*
X019838Y009036D03*
X019838Y008564D03*
X019838Y008091D03*
X019838Y007619D03*
X019838Y007146D03*
X019838Y006674D03*
X014129Y006674D03*
X014129Y007146D03*
X014129Y007619D03*
X014129Y008091D03*
X014129Y008564D03*
X014129Y009036D03*
X014129Y009509D03*
X014129Y009981D03*
D15*
X013484Y011528D03*
X013484Y012128D03*
X013440Y015640D03*
X012840Y015640D03*
X011940Y015640D03*
X011340Y015640D03*
X010440Y015640D03*
X009840Y015640D03*
X008940Y015640D03*
X008340Y015640D03*
X009140Y018590D03*
X009140Y019190D03*
X010140Y019190D03*
X010140Y018590D03*
X011140Y018590D03*
X011140Y019190D03*
X014140Y017190D03*
X014140Y016590D03*
X015090Y016765D03*
X015690Y016765D03*
X015690Y016140D03*
X015090Y016140D03*
X015090Y017515D03*
X015690Y017515D03*
X015690Y018390D03*
X015090Y018390D03*
X020890Y017190D03*
X020890Y016590D03*
X020859Y006878D03*
X020859Y006278D03*
X019534Y004828D03*
X018934Y004828D03*
X014859Y005128D03*
X014859Y004528D03*
D16*
X021890Y008926D03*
X021890Y009438D03*
X023640Y009438D03*
X023640Y008926D03*
D17*
X023021Y009515D03*
X022509Y009515D03*
X021271Y009515D03*
X020759Y009515D03*
D18*
X020890Y018340D03*
X020890Y018940D03*
X019890Y018940D03*
X019890Y018340D03*
X014140Y018340D03*
X014140Y018940D03*
X013140Y018940D03*
X013140Y018340D03*
X012140Y018340D03*
X012140Y018940D03*
D19*
X012140Y018640D03*
X013140Y018640D03*
X014140Y018640D03*
X019890Y018640D03*
X020890Y018640D03*
D20*
X019890Y017323D03*
X019516Y016496D03*
X020264Y016496D03*
X013514Y016496D03*
X012766Y016496D03*
X012014Y016496D03*
X011266Y016496D03*
X010514Y016496D03*
X009766Y016496D03*
X009014Y016496D03*
X008266Y016496D03*
X008640Y017323D03*
X010140Y017323D03*
X011640Y017323D03*
X013140Y017323D03*
D21*
X016378Y017514D03*
X016378Y016766D03*
X017402Y016766D03*
X017402Y017140D03*
X017402Y017514D03*
D22*
X017984Y011578D03*
X018484Y011578D03*
X017484Y005328D03*
D23*
X017084Y012828D03*
X016484Y012828D03*
X015884Y012828D03*
D24*
X014984Y012828D03*
X014484Y012828D03*
X013984Y012828D03*
X013484Y012828D03*
D25*
X001640Y004390D03*
X001640Y005390D03*
X002640Y005390D03*
X002640Y004390D03*
X003640Y004390D03*
X004640Y004390D03*
X004640Y005390D03*
X003640Y005390D03*
X003640Y006390D03*
X004640Y006390D03*
X004640Y007390D03*
X003640Y007390D03*
X002640Y007390D03*
X002640Y006390D03*
X001640Y006390D03*
X001640Y007390D03*
X001640Y008390D03*
X002640Y008390D03*
X003640Y008390D03*
X004640Y008390D03*
X005640Y008390D03*
X006640Y008390D03*
X007640Y008390D03*
X008640Y008390D03*
X009640Y008390D03*
X010640Y008390D03*
X011640Y008390D03*
X011640Y007390D03*
X011640Y006390D03*
X010640Y006390D03*
X009640Y006390D03*
X009640Y007390D03*
X010640Y007390D03*
X008640Y007390D03*
X008640Y006390D03*
X007640Y006390D03*
X006640Y006390D03*
X006640Y007390D03*
X007640Y007390D03*
X005640Y007390D03*
X005640Y006390D03*
X005640Y005390D03*
X005640Y004390D03*
X006640Y004390D03*
X007640Y004390D03*
X007640Y005390D03*
X006640Y005390D03*
X008640Y005390D03*
X008640Y004390D03*
X009640Y004390D03*
X010640Y004390D03*
X010640Y005390D03*
X009640Y005390D03*
X011640Y005390D03*
X011640Y004390D03*
X011640Y009390D03*
X011640Y010390D03*
X010640Y010390D03*
X009640Y010390D03*
X009640Y009390D03*
X010640Y009390D03*
X008640Y009390D03*
X008640Y010390D03*
X007640Y010390D03*
X006640Y010390D03*
X006640Y009390D03*
X007640Y009390D03*
X005640Y009390D03*
X005640Y010390D03*
X004640Y010390D03*
X003640Y010390D03*
X003640Y009390D03*
X004640Y009390D03*
X002640Y009390D03*
X002640Y010390D03*
X001640Y010390D03*
X001640Y009390D03*
X001640Y011390D03*
X001640Y012390D03*
X002640Y012390D03*
X002640Y011390D03*
X003640Y011390D03*
X004640Y011390D03*
X004640Y012390D03*
X003640Y012390D03*
X003640Y013390D03*
X004640Y013390D03*
X005640Y013390D03*
X006640Y013390D03*
X007640Y013390D03*
X008640Y013390D03*
X009640Y013390D03*
X010640Y013390D03*
X011640Y013390D03*
X011640Y012390D03*
X011640Y011390D03*
X010640Y011390D03*
X009640Y011390D03*
X009640Y012390D03*
X010640Y012390D03*
X008640Y012390D03*
X008640Y011390D03*
X007640Y011390D03*
X006640Y011390D03*
X006640Y012390D03*
X007640Y012390D03*
X005640Y012390D03*
X005640Y011390D03*
X002640Y013390D03*
X001640Y013390D03*
X001640Y014390D03*
X001640Y015390D03*
X002640Y015390D03*
X002640Y014390D03*
X003640Y014390D03*
X004640Y014390D03*
X004640Y015390D03*
X003640Y015390D03*
X003640Y016390D03*
X004640Y016390D03*
X004640Y017390D03*
X003640Y017390D03*
X002640Y017390D03*
X002640Y016390D03*
X001640Y016390D03*
X001640Y017390D03*
X001640Y018390D03*
X002640Y018390D03*
X003640Y018390D03*
X004640Y018390D03*
X005640Y018390D03*
X006640Y018390D03*
X006640Y017390D03*
X006640Y016390D03*
X005640Y016390D03*
X005640Y017390D03*
X005640Y015390D03*
X005640Y014390D03*
X006640Y014390D03*
X006640Y015390D03*
X006640Y019390D03*
X005640Y019390D03*
X004640Y019390D03*
X003640Y019390D03*
X002640Y019390D03*
X001640Y019390D03*
M02*
