G75*
G70*
%OFA0B0*%
%FSLAX24Y24*%
%IPPOS*%
%LPD*%
%AMOC8*
5,1,8,0,0,1.08239X$1,22.5*
%
%ADD10R,0.0945X0.0748*%
%ADD11R,0.0472X0.0472*%
%ADD12R,0.0472X0.0276*%
%ADD13R,0.0276X0.0472*%
%ADD14R,0.0300X0.0300*%
%ADD15R,0.0276X0.0354*%
%ADD16R,0.0354X0.0276*%
%ADD17R,0.1000X0.0400*%
%ADD18R,0.0630X0.0460*%
%ADD19R,0.0315X0.0354*%
%ADD20R,0.0472X0.0217*%
D10*
X021622Y010723D03*
X021622Y012140D03*
X021622Y013557D03*
X023158Y013557D03*
X023158Y012140D03*
X023158Y010723D03*
D11*
X024693Y009286D03*
X020087Y009286D03*
X020087Y014994D03*
X024693Y014994D03*
D12*
X024693Y014266D03*
X024693Y013794D03*
X024693Y013321D03*
X024693Y012849D03*
X024693Y012376D03*
X024693Y011904D03*
X024693Y011431D03*
X024693Y010959D03*
X024693Y010486D03*
X024693Y010014D03*
X020087Y010014D03*
X020087Y010486D03*
X020087Y010959D03*
X020087Y011431D03*
X020087Y011904D03*
X020087Y012376D03*
X020087Y012849D03*
X020087Y013321D03*
X020087Y013794D03*
X020087Y014266D03*
D13*
X020736Y014994D03*
X021209Y014994D03*
X021681Y014994D03*
X022154Y014994D03*
X022626Y014994D03*
X023099Y014994D03*
X023571Y014994D03*
X024044Y014994D03*
X024044Y009286D03*
X023571Y009286D03*
X023099Y009286D03*
X022626Y009286D03*
X022154Y009286D03*
X021681Y009286D03*
X021209Y009286D03*
X020736Y009286D03*
D14*
X018590Y014265D03*
X019190Y014265D03*
X018440Y016640D03*
X017840Y016640D03*
X017840Y017265D03*
X018440Y017265D03*
X018440Y018015D03*
X017840Y018015D03*
X016890Y017690D03*
X016890Y017090D03*
X016190Y016140D03*
X015590Y016140D03*
X014690Y016140D03*
X014090Y016140D03*
X013190Y016140D03*
X012590Y016140D03*
X011690Y016140D03*
X011090Y016140D03*
X011890Y019090D03*
X011890Y019690D03*
X012890Y019690D03*
X012890Y019090D03*
X013890Y019090D03*
X013890Y019690D03*
X017840Y018890D03*
X018440Y018890D03*
X023640Y017690D03*
X023640Y017090D03*
X025590Y015640D03*
X026190Y015640D03*
X018890Y010190D03*
X018890Y009590D03*
X020340Y008265D03*
X020940Y008265D03*
D15*
X024884Y008140D03*
X025396Y008140D03*
X026384Y007015D03*
X026896Y007015D03*
X025583Y005390D03*
X025072Y005390D03*
D16*
X026390Y005884D03*
X026390Y006396D03*
D17*
X026390Y005378D03*
X026390Y002778D03*
D18*
X026890Y012040D03*
X026890Y012640D03*
X026890Y013240D03*
X023640Y018840D03*
X023640Y019440D03*
X022640Y019440D03*
X022640Y018840D03*
X016890Y018840D03*
X016890Y019440D03*
X015890Y019440D03*
X015890Y018840D03*
X014890Y018840D03*
X014890Y019440D03*
D19*
X014390Y017823D03*
X014016Y016996D03*
X014764Y016996D03*
X015516Y016996D03*
X016264Y016996D03*
X015890Y017823D03*
X013264Y016996D03*
X012516Y016996D03*
X011764Y016996D03*
X011016Y016996D03*
X011390Y017823D03*
X012890Y017823D03*
X022266Y016996D03*
X023014Y016996D03*
X022640Y017823D03*
D20*
X020152Y017640D03*
X020152Y018014D03*
X020152Y017266D03*
X019128Y017266D03*
X019128Y018014D03*
M02*
