G75*
G70*
%OFA0B0*%
%FSLAX24Y24*%
%IPPOS*%
%LPD*%
%AMOC8*
5,1,8,0,0,1.08239X$1,22.5*
%
%ADD10OC8,0.0560*%
%ADD11C,0.0454*%
%ADD12C,0.0820*%
D10*
X010890Y001390D03*
X011890Y001390D03*
X012890Y001390D03*
X013890Y001390D03*
X014890Y001390D03*
X015890Y001390D03*
X017890Y001390D03*
X018890Y001390D03*
X019890Y001390D03*
X020890Y001390D03*
X021890Y001390D03*
X022890Y001390D03*
X022890Y020390D03*
X021890Y020390D03*
X020890Y020390D03*
X019890Y020390D03*
X018890Y020390D03*
X017890Y020390D03*
X016890Y020390D03*
X015890Y020390D03*
X014140Y020390D03*
X013140Y020390D03*
X012140Y020390D03*
X011140Y020390D03*
X010140Y020390D03*
X009140Y020390D03*
X008140Y020390D03*
X007140Y020390D03*
D11*
X013484Y012828D03*
X013984Y012828D03*
X014484Y012828D03*
X014984Y012828D03*
D12*
X001640Y004390D03*
X001640Y005390D03*
X002640Y005390D03*
X002640Y004390D03*
X003640Y004390D03*
X004640Y004390D03*
X004640Y005390D03*
X003640Y005390D03*
X003640Y006390D03*
X004640Y006390D03*
X004640Y007390D03*
X003640Y007390D03*
X002640Y007390D03*
X002640Y006390D03*
X001640Y006390D03*
X001640Y007390D03*
X001640Y008390D03*
X002640Y008390D03*
X003640Y008390D03*
X004640Y008390D03*
X005640Y008390D03*
X006640Y008390D03*
X007640Y008390D03*
X008640Y008390D03*
X009640Y008390D03*
X010640Y008390D03*
X011640Y008390D03*
X011640Y007390D03*
X011640Y006390D03*
X010640Y006390D03*
X009640Y006390D03*
X009640Y007390D03*
X010640Y007390D03*
X008640Y007390D03*
X008640Y006390D03*
X007640Y006390D03*
X006640Y006390D03*
X006640Y007390D03*
X007640Y007390D03*
X005640Y007390D03*
X005640Y006390D03*
X005640Y005390D03*
X005640Y004390D03*
X006640Y004390D03*
X007640Y004390D03*
X007640Y005390D03*
X006640Y005390D03*
X008640Y005390D03*
X008640Y004390D03*
X009640Y004390D03*
X010640Y004390D03*
X010640Y005390D03*
X009640Y005390D03*
X011640Y005390D03*
X011640Y004390D03*
X011640Y009390D03*
X011640Y010390D03*
X010640Y010390D03*
X009640Y010390D03*
X009640Y009390D03*
X010640Y009390D03*
X008640Y009390D03*
X008640Y010390D03*
X007640Y010390D03*
X006640Y010390D03*
X006640Y009390D03*
X007640Y009390D03*
X005640Y009390D03*
X005640Y010390D03*
X004640Y010390D03*
X003640Y010390D03*
X003640Y009390D03*
X004640Y009390D03*
X002640Y009390D03*
X002640Y010390D03*
X001640Y010390D03*
X001640Y009390D03*
X001640Y011390D03*
X001640Y012390D03*
X002640Y012390D03*
X002640Y011390D03*
X003640Y011390D03*
X004640Y011390D03*
X004640Y012390D03*
X003640Y012390D03*
X003640Y013390D03*
X004640Y013390D03*
X005640Y013390D03*
X006640Y013390D03*
X007640Y013390D03*
X008640Y013390D03*
X009640Y013390D03*
X010640Y013390D03*
X011640Y013390D03*
X011640Y012390D03*
X011640Y011390D03*
X010640Y011390D03*
X009640Y011390D03*
X009640Y012390D03*
X010640Y012390D03*
X008640Y012390D03*
X008640Y011390D03*
X007640Y011390D03*
X006640Y011390D03*
X006640Y012390D03*
X007640Y012390D03*
X005640Y012390D03*
X005640Y011390D03*
X002640Y013390D03*
X001640Y013390D03*
X001640Y014390D03*
X001640Y015390D03*
X002640Y015390D03*
X002640Y014390D03*
X003640Y014390D03*
X004640Y014390D03*
X004640Y015390D03*
X003640Y015390D03*
X003640Y016390D03*
X004640Y016390D03*
X004640Y017390D03*
X003640Y017390D03*
X002640Y017390D03*
X002640Y016390D03*
X001640Y016390D03*
X001640Y017390D03*
X001640Y018390D03*
X002640Y018390D03*
X003640Y018390D03*
X004640Y018390D03*
X005640Y018390D03*
X006640Y018390D03*
X006640Y017390D03*
X006640Y016390D03*
X005640Y016390D03*
X005640Y017390D03*
X005640Y015390D03*
X005640Y014390D03*
X006640Y014390D03*
X006640Y015390D03*
X006640Y019390D03*
X005640Y019390D03*
X004640Y019390D03*
X003640Y019390D03*
X002640Y019390D03*
X001640Y019390D03*
M02*
