G75*
G70*
%OFA0B0*%
%FSLAX24Y24*%
%IPPOS*%
%LPD*%
%AMOC8*
5,1,8,0,0,1.08239X$1,22.5*
%
%ADD10C,0.0050*%
%ADD11C,0.0040*%
%ADD12C,0.0080*%
%ADD13C,0.0039*%
%ADD14C,0.0276*%
%ADD15C,0.0100*%
%ADD16C,0.0060*%
%ADD17C,0.0059*%
D10*
X001915Y001415D02*
X002050Y001415D01*
X002095Y001460D01*
X002095Y001505D01*
X002050Y001550D01*
X001915Y001550D01*
X001915Y001415D02*
X001915Y001685D01*
X002050Y001685D01*
X002095Y001640D01*
X002095Y001595D01*
X002050Y001550D01*
X002210Y001550D02*
X002210Y001460D01*
X002255Y001415D01*
X002345Y001415D01*
X002390Y001460D01*
X002390Y001550D01*
X002345Y001595D01*
X002255Y001595D01*
X002210Y001550D01*
X002504Y001460D02*
X002549Y001505D01*
X002684Y001505D01*
X002684Y001550D02*
X002684Y001415D01*
X002549Y001415D01*
X002504Y001460D01*
X002549Y001595D02*
X002639Y001595D01*
X002684Y001550D01*
X002799Y001505D02*
X002889Y001595D01*
X002934Y001595D01*
X003044Y001550D02*
X003090Y001595D01*
X003225Y001595D01*
X003225Y001685D02*
X003225Y001415D01*
X003090Y001415D01*
X003044Y001460D01*
X003044Y001550D01*
X002799Y001595D02*
X002799Y001415D01*
X003634Y001415D02*
X003634Y001685D01*
X003814Y001685D01*
X003724Y001550D02*
X003634Y001550D01*
X003928Y001460D02*
X003973Y001505D01*
X004109Y001505D01*
X004109Y001550D02*
X004109Y001415D01*
X003973Y001415D01*
X003928Y001460D01*
X003973Y001595D02*
X004064Y001595D01*
X004109Y001550D01*
X004223Y001595D02*
X004358Y001595D01*
X004403Y001550D01*
X004403Y001460D01*
X004358Y001415D01*
X004223Y001415D01*
X004223Y001685D01*
X004518Y001595D02*
X004518Y001550D01*
X004563Y001550D01*
X004563Y001595D01*
X004518Y001595D01*
X004518Y001460D02*
X004518Y001415D01*
X004563Y001415D01*
X004563Y001460D01*
X004518Y001460D01*
X004960Y001415D02*
X005140Y001415D01*
X005050Y001415D02*
X005050Y001685D01*
X004960Y001595D01*
X005254Y001460D02*
X005299Y001460D01*
X005299Y001415D01*
X005254Y001415D01*
X005254Y001460D01*
X005402Y001460D02*
X005447Y001415D01*
X005537Y001415D01*
X005582Y001460D01*
X005582Y001505D01*
X005537Y001550D01*
X005402Y001550D01*
X005402Y001460D01*
X005402Y001550D02*
X005492Y001640D01*
X005582Y001685D01*
X005696Y001595D02*
X005741Y001595D01*
X005786Y001550D01*
X005831Y001595D01*
X005877Y001550D01*
X005877Y001415D01*
X005786Y001415D02*
X005786Y001550D01*
X005696Y001595D02*
X005696Y001415D01*
X005991Y001415D02*
X005991Y001595D01*
X006036Y001595D01*
X006081Y001550D01*
X006126Y001595D01*
X006171Y001550D01*
X006171Y001415D01*
X006081Y001415D02*
X006081Y001550D01*
X006580Y001550D02*
X006670Y001550D01*
X006580Y001415D02*
X006580Y001685D01*
X006760Y001685D01*
X006875Y001685D02*
X006875Y001415D01*
X006875Y001505D02*
X007010Y001505D01*
X007055Y001550D01*
X007055Y001640D01*
X007010Y001685D01*
X006875Y001685D01*
X006965Y001505D02*
X007055Y001415D01*
X007170Y001550D02*
X007305Y001685D01*
X007305Y001415D01*
X007350Y001550D02*
X007170Y001550D01*
X007509Y001460D02*
X007509Y001415D01*
X007554Y001415D01*
X007554Y001460D01*
X007509Y001460D01*
X007554Y001415D02*
X007464Y001325D01*
X007955Y001415D02*
X008136Y001595D01*
X008136Y001640D01*
X008090Y001685D01*
X008000Y001685D01*
X007955Y001640D01*
X007955Y001415D02*
X008136Y001415D01*
X008250Y001550D02*
X008430Y001550D01*
X008545Y001415D02*
X008635Y001415D01*
X008590Y001415D02*
X008590Y001685D01*
X008545Y001685D01*
X008786Y001595D02*
X008876Y001595D01*
X008921Y001550D01*
X008921Y001415D01*
X008786Y001415D01*
X008741Y001460D01*
X008786Y001505D01*
X008921Y001505D01*
X009036Y001460D02*
X009081Y001415D01*
X009216Y001415D01*
X009216Y001370D02*
X009171Y001325D01*
X009126Y001325D01*
X009216Y001370D02*
X009216Y001595D01*
X009330Y001550D02*
X009375Y001595D01*
X009466Y001595D01*
X009511Y001550D01*
X009511Y001505D01*
X009330Y001505D01*
X009330Y001460D02*
X009330Y001550D01*
X009330Y001460D02*
X009375Y001415D01*
X009466Y001415D01*
X009625Y001415D02*
X009625Y001595D01*
X009625Y001505D02*
X009715Y001595D01*
X009760Y001595D01*
X010165Y001640D02*
X010210Y001685D01*
X010300Y001685D01*
X010345Y001640D01*
X010345Y001595D01*
X010300Y001550D01*
X010345Y001505D01*
X010345Y001460D01*
X010300Y001415D01*
X010210Y001415D01*
X010165Y001460D01*
X010255Y001550D02*
X010300Y001550D01*
X010460Y001550D02*
X010550Y001595D01*
X010595Y001595D01*
X010640Y001550D01*
X010640Y001460D01*
X010595Y001415D01*
X010505Y001415D01*
X010460Y001460D01*
X010460Y001550D02*
X010460Y001685D01*
X010640Y001685D01*
X010800Y001550D02*
X010800Y001460D01*
X010800Y001370D01*
X010755Y001325D01*
X010845Y001415D02*
X010800Y001460D01*
X010845Y001415D02*
X010890Y001415D01*
X010935Y001460D01*
X010935Y001550D01*
X011049Y001595D02*
X011049Y001415D01*
X011139Y001415D02*
X011139Y001550D01*
X011184Y001595D01*
X011229Y001550D01*
X011229Y001415D01*
X011139Y001550D02*
X011094Y001595D01*
X011049Y001595D01*
X011639Y001640D02*
X011639Y001460D01*
X011684Y001415D01*
X011774Y001415D01*
X011819Y001460D01*
X011933Y001460D02*
X011978Y001415D01*
X012113Y001415D01*
X012113Y001595D01*
X011933Y001595D02*
X011933Y001460D01*
X011819Y001640D02*
X011774Y001685D01*
X011684Y001685D01*
X011639Y001640D01*
X012228Y001325D02*
X012318Y001415D01*
X012273Y001415D01*
X012273Y001460D01*
X012318Y001460D01*
X012318Y001415D01*
X012363Y002915D02*
X012273Y002915D01*
X012228Y002960D01*
X012228Y003050D01*
X012273Y003095D01*
X012363Y003095D01*
X012408Y003050D01*
X012408Y003005D01*
X012228Y003005D01*
X012121Y002915D02*
X012031Y002915D01*
X012076Y002915D02*
X012076Y003095D01*
X012031Y003095D01*
X012076Y003185D02*
X012076Y003230D01*
X011917Y003050D02*
X011917Y002915D01*
X011917Y003050D02*
X011872Y003095D01*
X011782Y003095D01*
X011737Y003050D01*
X011622Y003005D02*
X011622Y002960D01*
X011577Y002915D01*
X011487Y002915D01*
X011442Y002960D01*
X011487Y003050D02*
X011577Y003050D01*
X011622Y003005D01*
X011622Y003140D02*
X011577Y003185D01*
X011487Y003185D01*
X011442Y003140D01*
X011442Y003095D01*
X011487Y003050D01*
X011737Y003185D02*
X011737Y002915D01*
X012522Y002915D02*
X012613Y002915D01*
X012568Y002915D02*
X012568Y003185D01*
X012522Y003185D01*
X012719Y003050D02*
X012764Y003095D01*
X012899Y003095D01*
X012899Y003185D02*
X012899Y002915D01*
X012764Y002915D01*
X012719Y002960D01*
X012719Y003050D01*
X011041Y002915D02*
X010951Y002915D01*
X010996Y002915D02*
X010996Y003095D01*
X010951Y003095D01*
X010996Y003185D02*
X010996Y003230D01*
X010836Y003185D02*
X010656Y003185D01*
X010656Y002915D01*
X010656Y003050D02*
X010746Y003050D01*
X010542Y003050D02*
X010362Y003050D01*
X010210Y003095D02*
X010210Y002915D01*
X010165Y002915D02*
X010255Y002915D01*
X010210Y003095D02*
X010165Y003095D01*
X010210Y003185D02*
X010210Y003230D01*
X010051Y003185D02*
X010051Y002915D01*
X009961Y003005D01*
X009871Y002915D01*
X009871Y003185D01*
X009461Y003095D02*
X009326Y003095D01*
X009281Y003050D01*
X009281Y002960D01*
X009326Y002915D01*
X009461Y002915D01*
X009461Y002870D02*
X009461Y003095D01*
X009461Y002870D02*
X009416Y002825D01*
X009371Y002825D01*
X008987Y002915D02*
X009167Y003185D01*
X008872Y003050D02*
X008827Y003095D01*
X008692Y003095D01*
X008692Y003185D02*
X008692Y002915D01*
X008827Y002915D01*
X008872Y002960D01*
X008872Y003050D01*
X008577Y002915D02*
X008397Y002915D01*
X008487Y002915D02*
X008487Y003185D01*
X008397Y003095D01*
X008283Y002915D02*
X008103Y002915D01*
X008193Y002915D02*
X008193Y003185D01*
X008103Y003095D01*
X008000Y002960D02*
X008000Y002915D01*
X007955Y002915D01*
X007955Y002960D01*
X008000Y002960D01*
X007841Y002915D02*
X007661Y002915D01*
X007841Y003095D01*
X007841Y003140D01*
X007796Y003185D01*
X007706Y003185D01*
X007661Y003140D01*
X007546Y003140D02*
X007366Y002960D01*
X007411Y002915D01*
X007501Y002915D01*
X007546Y002960D01*
X007546Y003140D01*
X007501Y003185D01*
X007411Y003185D01*
X007366Y003140D01*
X007366Y002960D01*
X007252Y002960D02*
X007207Y002915D01*
X007116Y002915D01*
X007071Y002960D01*
X007071Y003005D01*
X007116Y003050D01*
X007207Y003050D01*
X007252Y003005D01*
X007252Y002960D01*
X007207Y003050D02*
X007252Y003095D01*
X007252Y003140D01*
X007207Y003185D01*
X007116Y003185D01*
X007071Y003140D01*
X007071Y003095D01*
X007116Y003050D01*
X006662Y003050D02*
X006662Y003005D01*
X006482Y003005D01*
X006482Y002960D02*
X006482Y003050D01*
X006527Y003095D01*
X006617Y003095D01*
X006662Y003050D01*
X006617Y002915D02*
X006527Y002915D01*
X006482Y002960D01*
X006376Y002915D02*
X006286Y002915D01*
X006331Y002915D02*
X006331Y003185D01*
X006286Y003185D01*
X006171Y003050D02*
X006126Y003095D01*
X005991Y003095D01*
X005991Y003185D02*
X005991Y002915D01*
X006126Y002915D01*
X006171Y002960D01*
X006171Y003050D01*
X005885Y002915D02*
X005795Y002915D01*
X005840Y002915D02*
X005840Y003095D01*
X005795Y003095D01*
X005840Y003185D02*
X005840Y003230D01*
X005688Y003095D02*
X005598Y003095D01*
X005643Y003140D02*
X005643Y002960D01*
X005688Y002915D01*
X005484Y002915D02*
X005349Y002915D01*
X005303Y002960D01*
X005349Y003005D01*
X005484Y003005D01*
X005484Y003050D02*
X005484Y002915D01*
X005484Y003050D02*
X005439Y003095D01*
X005349Y003095D01*
X005189Y003050D02*
X005189Y002960D01*
X005144Y002915D01*
X005009Y002915D01*
X005009Y002825D02*
X005009Y003095D01*
X005144Y003095D01*
X005189Y003050D01*
X004894Y003050D02*
X004894Y002915D01*
X004804Y002915D02*
X004804Y003050D01*
X004849Y003095D01*
X004894Y003050D01*
X004804Y003050D02*
X004759Y003095D01*
X004714Y003095D01*
X004714Y002915D01*
X004600Y002960D02*
X004600Y003050D01*
X004555Y003095D01*
X004465Y003095D01*
X004420Y003050D01*
X004420Y002960D01*
X004465Y002915D01*
X004555Y002915D01*
X004600Y002960D01*
X004305Y002960D02*
X004260Y002915D01*
X004170Y002915D01*
X004125Y002960D01*
X004125Y003140D01*
X004170Y003185D01*
X004260Y003185D01*
X004305Y003140D01*
X004010Y003050D02*
X003830Y003050D01*
X003716Y003050D02*
X003671Y003095D01*
X003581Y003095D01*
X003536Y003050D01*
X003536Y002960D01*
X003581Y002915D01*
X003671Y002915D01*
X003716Y002960D01*
X003716Y003050D01*
X003519Y002685D02*
X003519Y002415D01*
X003429Y002505D01*
X003339Y002415D01*
X003339Y002685D01*
X003421Y002915D02*
X003421Y003050D01*
X003376Y003095D01*
X003241Y003095D01*
X003241Y002915D01*
X003135Y002915D02*
X003044Y002915D01*
X003090Y002915D02*
X003090Y003095D01*
X003044Y003095D01*
X003090Y003185D02*
X003090Y003230D01*
X002930Y003095D02*
X002930Y002915D01*
X002795Y002915D01*
X002750Y002960D01*
X002750Y003095D01*
X002635Y003095D02*
X002500Y003095D01*
X002455Y003050D01*
X002455Y002960D01*
X002500Y002915D01*
X002635Y002915D01*
X002635Y003185D01*
X002345Y003095D02*
X002300Y003095D01*
X002210Y003005D01*
X002210Y002915D02*
X002210Y003095D01*
X002095Y003095D02*
X002095Y002915D01*
X002095Y003050D02*
X001915Y003050D01*
X001915Y003095D02*
X002005Y003185D01*
X002095Y003095D01*
X001915Y003095D02*
X001915Y002915D01*
X001915Y002685D02*
X001915Y002415D01*
X002095Y002415D01*
X002210Y002460D02*
X002255Y002415D01*
X002390Y002415D01*
X002390Y002595D01*
X002504Y002505D02*
X002639Y002595D01*
X002750Y002550D02*
X002795Y002595D01*
X002885Y002595D01*
X002930Y002550D01*
X002930Y002505D01*
X002750Y002505D01*
X002750Y002460D02*
X002750Y002550D01*
X002750Y002460D02*
X002795Y002415D01*
X002885Y002415D01*
X002639Y002415D02*
X002504Y002505D01*
X002504Y002415D02*
X002504Y002685D01*
X002210Y002595D02*
X002210Y002460D01*
X003634Y002460D02*
X003679Y002415D01*
X003769Y002415D01*
X003814Y002505D02*
X003634Y002505D01*
X003634Y002460D02*
X003634Y002550D01*
X003679Y002595D01*
X003769Y002595D01*
X003814Y002550D01*
X003814Y002505D01*
X003928Y002550D02*
X003973Y002595D01*
X004109Y002595D01*
X004064Y002505D02*
X003973Y002505D01*
X003928Y002550D01*
X003928Y002415D02*
X004064Y002415D01*
X004109Y002460D01*
X004064Y002505D01*
X004223Y002595D02*
X004313Y002595D01*
X004268Y002640D02*
X004268Y002460D01*
X004313Y002415D01*
X004420Y002460D02*
X004465Y002415D01*
X004555Y002415D01*
X004600Y002460D01*
X004600Y002550D01*
X004555Y002595D01*
X004465Y002595D01*
X004420Y002550D01*
X004420Y002460D01*
X004714Y002415D02*
X004714Y002595D01*
X004849Y002595D01*
X004894Y002550D01*
X004894Y002415D01*
X005009Y002325D02*
X005099Y002415D01*
X005054Y002415D01*
X005054Y002460D01*
X005099Y002460D01*
X005099Y002415D01*
X005500Y002415D02*
X005680Y002595D01*
X005680Y002640D01*
X005635Y002685D01*
X005545Y002685D01*
X005500Y002640D01*
X005500Y002415D02*
X005680Y002415D01*
X005795Y002460D02*
X005975Y002640D01*
X005975Y002460D01*
X005930Y002415D01*
X005840Y002415D01*
X005795Y002460D01*
X005795Y002640D01*
X005840Y002685D01*
X005930Y002685D01*
X005975Y002640D01*
X006089Y002595D02*
X006179Y002685D01*
X006179Y002415D01*
X006089Y002415D02*
X006269Y002415D01*
X006384Y002460D02*
X006429Y002415D01*
X006519Y002415D01*
X006564Y002460D01*
X006564Y002505D01*
X006519Y002550D01*
X006474Y002550D01*
X006519Y002550D02*
X006564Y002595D01*
X006564Y002640D01*
X006519Y002685D01*
X006429Y002685D01*
X006384Y002640D01*
X009036Y001595D02*
X009036Y001460D01*
X018134Y009785D02*
X018314Y009965D01*
X018314Y009785D01*
X018269Y009740D01*
X018179Y009740D01*
X018134Y009785D01*
X018134Y009965D01*
X018179Y010010D01*
X018269Y010010D01*
X018314Y009965D01*
X018428Y009965D02*
X018473Y010010D01*
X018564Y010010D01*
X018609Y009965D01*
X018609Y009875D01*
X018564Y009830D01*
X018564Y009740D01*
X018609Y009740D01*
X018473Y009740D02*
X018473Y009830D01*
X018428Y009875D01*
X018428Y009965D01*
X018428Y009740D02*
X018473Y009740D01*
X020415Y007890D02*
X020460Y007935D01*
X020550Y007935D01*
X020595Y007890D01*
X020415Y007710D01*
X020460Y007665D01*
X020550Y007665D01*
X020595Y007710D01*
X020595Y007890D01*
X020710Y007890D02*
X020755Y007935D01*
X020845Y007935D01*
X020890Y007890D01*
X020890Y007800D01*
X020845Y007755D01*
X020845Y007665D01*
X020890Y007665D01*
X020755Y007665D02*
X020755Y007755D01*
X020710Y007800D01*
X020710Y007890D01*
X020710Y007665D02*
X020755Y007665D01*
X020415Y007710D02*
X020415Y007890D01*
X023915Y005435D02*
X023915Y005165D01*
X024095Y005165D02*
X023915Y005435D01*
X024095Y005435D02*
X024095Y005165D01*
X024210Y005165D02*
X024210Y005435D01*
X024345Y005435D01*
X024390Y005390D01*
X024390Y005300D01*
X024345Y005255D01*
X024210Y005255D01*
X024215Y004685D02*
X024170Y004640D01*
X024170Y004460D01*
X024215Y004415D01*
X024305Y004415D01*
X024350Y004460D01*
X024464Y004415D02*
X024464Y004685D01*
X024350Y004640D02*
X024305Y004685D01*
X024215Y004685D01*
X024055Y004550D02*
X023875Y004550D01*
X023760Y004550D02*
X023760Y004460D01*
X023715Y004415D01*
X023625Y004415D01*
X023580Y004460D01*
X023580Y004550D02*
X023670Y004595D01*
X023715Y004595D01*
X023760Y004550D01*
X023760Y004685D02*
X023580Y004685D01*
X023580Y004550D01*
X023466Y004550D02*
X023286Y004550D01*
X023421Y004685D01*
X023421Y004415D01*
X023183Y004415D02*
X023183Y004460D01*
X023138Y004460D01*
X023138Y004415D01*
X023183Y004415D01*
X023024Y004415D02*
X022844Y004415D01*
X023024Y004595D01*
X023024Y004640D01*
X022979Y004685D01*
X022889Y004685D01*
X022844Y004640D01*
X022729Y004550D02*
X022549Y004550D01*
X022434Y004685D02*
X022254Y004685D01*
X022344Y004685D02*
X022344Y004415D01*
X022140Y004415D02*
X022140Y004685D01*
X021960Y004685D02*
X022140Y004415D01*
X021960Y004415D02*
X021960Y004685D01*
X021845Y004595D02*
X021755Y004685D01*
X021665Y004595D01*
X021665Y004415D01*
X021665Y004550D02*
X021845Y004550D01*
X021845Y004595D02*
X021845Y004415D01*
X024464Y004550D02*
X024644Y004550D01*
X024759Y004505D02*
X024894Y004505D01*
X024939Y004550D01*
X024939Y004640D01*
X024894Y004685D01*
X024759Y004685D01*
X024759Y004415D01*
X024644Y004415D02*
X024644Y004685D01*
X025053Y004550D02*
X025234Y004550D01*
X025348Y004685D02*
X025528Y004685D01*
X025438Y004685D02*
X025438Y004415D01*
X025370Y005950D02*
X025370Y006220D01*
X025505Y006220D01*
X025551Y006175D01*
X025551Y006085D01*
X025505Y006040D01*
X025370Y006040D01*
X025256Y006040D02*
X025076Y006040D01*
X025256Y006220D01*
X025256Y006265D01*
X025211Y006310D01*
X025121Y006310D01*
X025076Y006265D01*
X024973Y006085D02*
X024973Y006040D01*
X024928Y006040D01*
X024928Y006085D01*
X024973Y006085D01*
X024814Y006040D02*
X024634Y006040D01*
X024814Y006220D01*
X024814Y006265D01*
X024769Y006310D01*
X024679Y006310D01*
X024634Y006265D01*
X024853Y006884D02*
X025033Y007064D01*
X025033Y007109D01*
X024988Y007154D01*
X024898Y007154D01*
X024853Y007109D01*
X024853Y006884D02*
X025033Y006884D01*
X025147Y006884D02*
X025147Y006929D01*
X025192Y006929D01*
X025192Y006884D01*
X025147Y006884D01*
X025294Y006884D02*
X025475Y007064D01*
X025475Y007109D01*
X025430Y007154D01*
X025340Y007154D01*
X025294Y007109D01*
X025294Y006884D02*
X025475Y006884D01*
X025589Y006884D02*
X025589Y007064D01*
X025724Y007064D01*
X025769Y007019D01*
X025769Y006884D01*
X025884Y006884D02*
X025884Y007154D01*
X025884Y007019D02*
X026064Y007019D01*
X026064Y007154D02*
X026064Y006884D01*
X025845Y006310D02*
X025665Y006310D01*
X025665Y006040D01*
X025665Y006175D02*
X025755Y006175D01*
X026567Y008450D02*
X026567Y008720D01*
X026702Y008720D01*
X026747Y008675D01*
X026747Y008585D01*
X026702Y008540D01*
X026567Y008540D01*
X026452Y008585D02*
X026452Y008765D01*
X026272Y008585D01*
X026317Y008540D01*
X026407Y008540D01*
X026452Y008585D01*
X026272Y008585D02*
X026272Y008765D01*
X026317Y008810D01*
X026407Y008810D01*
X026452Y008765D01*
X026158Y008540D02*
X025978Y008540D01*
X026068Y008540D02*
X026068Y008810D01*
X025978Y008720D01*
X026861Y008675D02*
X026952Y008675D01*
X026861Y008810D02*
X027042Y008810D01*
X026861Y008810D02*
X026861Y008540D01*
X026365Y011353D02*
X026095Y011353D01*
X026365Y011533D01*
X026095Y011533D01*
X026230Y011647D02*
X026320Y011647D01*
X026365Y011692D01*
X026365Y011782D01*
X026320Y011827D01*
X026230Y011827D01*
X026185Y011782D01*
X026185Y011692D01*
X026230Y011647D01*
X026275Y011942D02*
X026185Y012032D01*
X026185Y012077D01*
X026185Y012187D02*
X026185Y012232D01*
X026230Y012277D01*
X026185Y012322D01*
X026230Y012368D01*
X026365Y012368D01*
X026365Y012277D02*
X026230Y012277D01*
X026185Y012187D02*
X026365Y012187D01*
X026365Y011942D02*
X026185Y011942D01*
X026095Y012853D02*
X026095Y013033D01*
X026095Y012943D02*
X026365Y012943D01*
X026320Y013147D02*
X026230Y013147D01*
X026185Y013192D01*
X026185Y013282D01*
X026230Y013327D01*
X026275Y013327D01*
X026275Y013147D01*
X026320Y013147D02*
X026365Y013192D01*
X026365Y013282D01*
X026365Y013442D02*
X026365Y013577D01*
X026320Y013622D01*
X026275Y013577D01*
X026275Y013487D01*
X026230Y013442D01*
X026185Y013487D01*
X026185Y013622D01*
X026185Y013736D02*
X026185Y013827D01*
X026140Y013781D02*
X026320Y013781D01*
X026365Y013827D01*
X026540Y013990D02*
X026740Y013790D01*
X027040Y013790D01*
X027240Y013990D01*
X027240Y014290D01*
X027140Y014390D01*
X027240Y014490D01*
X027240Y014790D01*
X027140Y014890D01*
X027240Y014990D01*
X027240Y015290D01*
X027140Y015390D01*
X027240Y015490D01*
X027240Y015790D01*
X027040Y015990D01*
X026740Y015990D01*
X026540Y015790D01*
X026540Y015490D01*
X026640Y015390D01*
X026540Y015290D01*
X026540Y014990D01*
X026640Y014890D01*
X026540Y014790D01*
X026540Y014490D01*
X026640Y014390D01*
X026540Y014290D01*
X026540Y013990D01*
X027321Y013960D02*
X027366Y013915D01*
X027456Y013915D01*
X027501Y013960D01*
X027501Y014050D01*
X027411Y014050D01*
X027321Y014140D02*
X027321Y013960D01*
X027321Y014140D02*
X027366Y014185D01*
X027456Y014185D01*
X027501Y014140D01*
X027616Y014185D02*
X027751Y014185D01*
X027796Y014140D01*
X027796Y013960D01*
X027751Y013915D01*
X027616Y013915D01*
X027616Y014185D01*
X027616Y014415D02*
X027796Y014685D01*
X027616Y014685D02*
X027796Y014415D01*
X027501Y014415D02*
X027411Y014505D01*
X027456Y014505D02*
X027321Y014505D01*
X027321Y014415D02*
X027321Y014685D01*
X027456Y014685D01*
X027501Y014640D01*
X027501Y014550D01*
X027456Y014505D01*
X027411Y014915D02*
X027411Y015185D01*
X027321Y015185D02*
X027501Y015185D01*
X027616Y015185D02*
X027796Y014915D01*
X027616Y014915D02*
X027796Y015185D01*
X027796Y015415D02*
X027796Y015685D01*
X027616Y015685D02*
X027616Y015415D01*
X027501Y015415D02*
X027321Y015415D01*
X027321Y015685D01*
X027501Y015685D01*
X027616Y015685D02*
X027796Y015415D01*
X027411Y015550D02*
X027321Y015550D01*
X026898Y016165D02*
X026808Y016255D01*
X026808Y016435D01*
X026693Y016390D02*
X026693Y016345D01*
X026648Y016300D01*
X026558Y016300D01*
X026513Y016345D01*
X026513Y016390D01*
X026558Y016435D01*
X026648Y016435D01*
X026693Y016390D01*
X026648Y016300D02*
X026693Y016255D01*
X026693Y016210D01*
X026648Y016165D01*
X026558Y016165D01*
X026513Y016210D01*
X026513Y016255D01*
X026558Y016300D01*
X026411Y016210D02*
X026411Y016165D01*
X026366Y016165D01*
X026366Y016210D01*
X026411Y016210D01*
X026385Y016185D02*
X026430Y016140D01*
X026430Y016050D01*
X026385Y016005D01*
X026385Y015915D01*
X026430Y015915D01*
X026295Y015915D02*
X026295Y016005D01*
X026250Y016050D01*
X026250Y016140D01*
X026295Y016185D01*
X026385Y016185D01*
X026251Y016165D02*
X026071Y016165D01*
X026004Y016185D02*
X026004Y015915D01*
X026004Y016005D02*
X026139Y016095D01*
X026161Y016165D02*
X026161Y016435D01*
X026071Y016345D01*
X025890Y016140D02*
X025710Y015960D01*
X025755Y015915D01*
X025845Y015915D01*
X025890Y015960D01*
X025890Y016140D01*
X025845Y016185D01*
X025755Y016185D01*
X025710Y016140D01*
X025710Y015960D01*
X025595Y015915D02*
X025415Y015915D01*
X025505Y015915D02*
X025505Y016185D01*
X025415Y016095D01*
X026004Y016005D02*
X026139Y015915D01*
X026250Y015915D02*
X026295Y015915D01*
X026898Y016165D02*
X026988Y016255D01*
X026988Y016435D01*
X024930Y017165D02*
X024885Y017165D01*
X024885Y017255D01*
X024930Y017300D01*
X024930Y017390D01*
X024885Y017435D01*
X024795Y017435D01*
X024750Y017390D01*
X024750Y017300D01*
X024795Y017255D01*
X024795Y017165D01*
X024750Y017165D01*
X024639Y017165D02*
X024504Y017255D01*
X024639Y017345D01*
X024504Y017435D02*
X024504Y017165D01*
X024390Y017210D02*
X024345Y017165D01*
X024255Y017165D01*
X024210Y017210D01*
X024390Y017390D01*
X024390Y017210D01*
X024390Y017390D02*
X024345Y017435D01*
X024255Y017435D01*
X024210Y017390D01*
X024210Y017210D01*
X024095Y017165D02*
X023915Y017165D01*
X024005Y017165D02*
X024005Y017435D01*
X023915Y017345D01*
X023398Y016685D02*
X023308Y016685D01*
X023263Y016640D01*
X023149Y016640D02*
X022969Y016460D01*
X023014Y016415D01*
X023104Y016415D01*
X023149Y016460D01*
X023149Y016640D01*
X023104Y016685D01*
X023014Y016685D01*
X022969Y016640D01*
X022969Y016460D01*
X022854Y016460D02*
X022809Y016415D01*
X022719Y016415D01*
X022674Y016460D01*
X022854Y016640D01*
X022854Y016460D01*
X022674Y016460D02*
X022674Y016640D01*
X022719Y016685D01*
X022809Y016685D01*
X022854Y016640D01*
X022559Y016640D02*
X022379Y016460D01*
X022379Y016415D01*
X022265Y016415D02*
X022265Y016685D01*
X022379Y016685D02*
X022559Y016685D01*
X022559Y016640D01*
X022265Y016415D02*
X022085Y016685D01*
X022085Y016415D01*
X021970Y016415D02*
X021790Y016415D01*
X021970Y016595D01*
X021970Y016640D01*
X021925Y016685D01*
X021835Y016685D01*
X021790Y016640D01*
X021273Y015935D02*
X021318Y015890D01*
X021138Y015710D01*
X021183Y015665D01*
X021273Y015665D01*
X021318Y015710D01*
X021318Y015890D01*
X021273Y015935D02*
X021183Y015935D01*
X021138Y015890D01*
X021138Y015710D01*
X021024Y015710D02*
X021024Y015890D01*
X020844Y015710D01*
X020889Y015665D01*
X020979Y015665D01*
X021024Y015710D01*
X021024Y015890D02*
X020979Y015935D01*
X020889Y015935D01*
X020844Y015890D01*
X020844Y015710D01*
X020729Y015710D02*
X020729Y015890D01*
X020549Y015710D01*
X020594Y015665D01*
X020684Y015665D01*
X020729Y015710D01*
X020549Y015710D02*
X020549Y015890D01*
X020594Y015935D01*
X020684Y015935D01*
X020729Y015890D01*
X020434Y015890D02*
X020434Y015845D01*
X020389Y015800D01*
X020434Y015755D01*
X020434Y015710D01*
X020389Y015665D01*
X020299Y015665D01*
X020254Y015710D01*
X020140Y015710D02*
X020095Y015665D01*
X020005Y015665D01*
X019960Y015710D01*
X019960Y015890D01*
X020005Y015935D01*
X020095Y015935D01*
X020140Y015890D01*
X020254Y015890D02*
X020299Y015935D01*
X020389Y015935D01*
X020434Y015890D01*
X020389Y015800D02*
X020344Y015800D01*
X019845Y015710D02*
X019800Y015665D01*
X019710Y015665D01*
X019665Y015710D01*
X019665Y015890D01*
X019710Y015935D01*
X019800Y015935D01*
X019845Y015890D01*
X019652Y016575D02*
X019697Y016620D01*
X019697Y016710D01*
X019742Y016665D01*
X019787Y016665D01*
X019832Y016710D01*
X019832Y016800D01*
X019946Y016800D02*
X020036Y016800D01*
X019946Y016665D02*
X019946Y016935D01*
X020126Y016935D01*
X019697Y016800D02*
X019697Y016710D01*
X019537Y016665D02*
X019357Y016665D01*
X019537Y016845D01*
X019537Y016890D01*
X019492Y016935D01*
X019402Y016935D01*
X019357Y016890D01*
X019255Y016710D02*
X019255Y016665D01*
X019210Y016665D01*
X019210Y016710D01*
X019255Y016710D01*
X019095Y016665D02*
X018915Y016665D01*
X019095Y016845D01*
X019095Y016890D01*
X019050Y016935D01*
X018960Y016935D01*
X018915Y016890D01*
X018579Y016385D02*
X018489Y016385D01*
X018444Y016340D01*
X018444Y016250D01*
X018489Y016205D01*
X018489Y016115D01*
X018444Y016115D01*
X018333Y016115D02*
X018198Y016205D01*
X018333Y016295D01*
X018198Y016385D02*
X018198Y016115D01*
X018084Y016160D02*
X018039Y016115D01*
X017948Y016115D01*
X017903Y016160D01*
X018084Y016340D01*
X018084Y016160D01*
X018084Y016340D02*
X018039Y016385D01*
X017948Y016385D01*
X017903Y016340D01*
X017903Y016160D01*
X017789Y016115D02*
X017609Y016115D01*
X017699Y016115D02*
X017699Y016385D01*
X017609Y016295D01*
X017374Y016441D02*
X017329Y016441D01*
X017329Y016531D01*
X017374Y016576D01*
X017374Y016666D01*
X017329Y016711D01*
X017239Y016711D01*
X017194Y016666D01*
X017194Y016576D01*
X017239Y016531D01*
X017239Y016441D01*
X017194Y016441D01*
X017083Y016441D02*
X016948Y016531D01*
X017083Y016621D01*
X016948Y016711D02*
X016948Y016441D01*
X016834Y016486D02*
X016789Y016441D01*
X016698Y016441D01*
X016653Y016486D01*
X016834Y016666D01*
X016834Y016486D01*
X016834Y016666D02*
X016789Y016711D01*
X016698Y016711D01*
X016653Y016666D01*
X016653Y016486D01*
X016539Y016441D02*
X016359Y016441D01*
X016449Y016441D02*
X016449Y016711D01*
X016359Y016621D01*
X016335Y015885D02*
X016245Y015885D01*
X016200Y015840D01*
X016200Y015750D01*
X016245Y015705D01*
X016245Y015615D01*
X016200Y015615D01*
X016089Y015615D02*
X015954Y015705D01*
X016089Y015795D01*
X015954Y015885D02*
X015954Y015615D01*
X015840Y015660D02*
X015795Y015615D01*
X015705Y015615D01*
X015660Y015660D01*
X015840Y015840D01*
X015840Y015660D01*
X015840Y015840D02*
X015795Y015885D01*
X015705Y015885D01*
X015660Y015840D01*
X015660Y015660D01*
X015545Y015615D02*
X015365Y015615D01*
X015455Y015615D02*
X015455Y015885D01*
X015365Y015795D01*
X014905Y015840D02*
X014905Y015750D01*
X014860Y015705D01*
X014860Y015615D01*
X014905Y015615D01*
X014770Y015615D02*
X014770Y015705D01*
X014725Y015750D01*
X014725Y015840D01*
X014770Y015885D01*
X014860Y015885D01*
X014905Y015840D01*
X014770Y015615D02*
X014725Y015615D01*
X014614Y015615D02*
X014479Y015705D01*
X014614Y015795D01*
X014479Y015885D02*
X014479Y015615D01*
X014365Y015660D02*
X014320Y015615D01*
X014230Y015615D01*
X014185Y015660D01*
X014365Y015840D01*
X014365Y015660D01*
X014365Y015840D02*
X014320Y015885D01*
X014230Y015885D01*
X014185Y015840D01*
X014185Y015660D01*
X014070Y015615D02*
X013890Y015615D01*
X013980Y015615D02*
X013980Y015885D01*
X013890Y015795D01*
X013380Y015750D02*
X013335Y015705D01*
X013335Y015615D01*
X013380Y015615D01*
X013380Y015750D02*
X013380Y015840D01*
X013335Y015885D01*
X013245Y015885D01*
X013200Y015840D01*
X013200Y015750D01*
X013245Y015705D01*
X013245Y015615D01*
X013200Y015615D01*
X013089Y015615D02*
X012954Y015705D01*
X013089Y015795D01*
X012954Y015885D02*
X012954Y015615D01*
X012840Y015660D02*
X012795Y015615D01*
X012705Y015615D01*
X012660Y015660D01*
X012840Y015840D01*
X012840Y015660D01*
X012840Y015840D02*
X012795Y015885D01*
X012705Y015885D01*
X012660Y015840D01*
X012660Y015660D01*
X012545Y015615D02*
X012365Y015615D01*
X012455Y015615D02*
X012455Y015885D01*
X012365Y015795D01*
X011874Y015760D02*
X011829Y015715D01*
X011829Y015625D01*
X011874Y015625D01*
X011874Y015760D02*
X011874Y015850D01*
X011829Y015895D01*
X011739Y015895D01*
X011694Y015850D01*
X011694Y015760D01*
X011739Y015715D01*
X011739Y015625D01*
X011694Y015625D01*
X011583Y015625D02*
X011448Y015715D01*
X011583Y015805D01*
X011448Y015895D02*
X011448Y015625D01*
X011334Y015670D02*
X011334Y015850D01*
X011153Y015670D01*
X011198Y015625D01*
X011289Y015625D01*
X011334Y015670D01*
X011334Y015850D02*
X011289Y015895D01*
X011198Y015895D01*
X011153Y015850D01*
X011153Y015670D01*
X011039Y015625D02*
X010859Y015625D01*
X010949Y015625D02*
X010949Y015895D01*
X010859Y015805D01*
X010866Y016415D02*
X010866Y016685D01*
X011046Y016415D01*
X011046Y016685D01*
X011161Y016685D02*
X011341Y016685D01*
X011341Y016640D01*
X011161Y016460D01*
X011161Y016415D01*
X011455Y016460D02*
X011635Y016640D01*
X011635Y016460D01*
X011590Y016415D01*
X011500Y016415D01*
X011455Y016460D01*
X011455Y016640D01*
X011500Y016685D01*
X011590Y016685D01*
X011635Y016640D01*
X011750Y016640D02*
X011750Y016460D01*
X011930Y016640D01*
X011930Y016460D01*
X011885Y016415D01*
X011795Y016415D01*
X011750Y016460D01*
X011750Y016640D02*
X011795Y016685D01*
X011885Y016685D01*
X011930Y016640D01*
X012045Y016640D02*
X012090Y016685D01*
X012180Y016685D01*
X012225Y016640D01*
X012225Y016595D01*
X012045Y016415D01*
X012225Y016415D01*
X013415Y016415D02*
X013595Y016595D01*
X013595Y016640D01*
X013550Y016685D01*
X013460Y016685D01*
X013415Y016640D01*
X013415Y016415D02*
X013595Y016415D01*
X013710Y016415D02*
X013710Y016685D01*
X013890Y016415D01*
X013890Y016685D01*
X014004Y016685D02*
X014184Y016685D01*
X014184Y016640D01*
X014004Y016460D01*
X014004Y016415D01*
X014299Y016460D02*
X014479Y016640D01*
X014479Y016460D01*
X014434Y016415D01*
X014344Y016415D01*
X014299Y016460D01*
X014299Y016640D01*
X014344Y016685D01*
X014434Y016685D01*
X014479Y016640D01*
X014594Y016640D02*
X014594Y016460D01*
X014774Y016640D01*
X014774Y016460D01*
X014729Y016415D01*
X014639Y016415D01*
X014594Y016460D01*
X014594Y016640D02*
X014639Y016685D01*
X014729Y016685D01*
X014774Y016640D01*
X014888Y016640D02*
X014933Y016685D01*
X015023Y016685D01*
X015068Y016640D01*
X015068Y016595D01*
X014888Y016415D01*
X015068Y016415D01*
X016335Y015885D02*
X016380Y015840D01*
X016380Y015750D01*
X016335Y015705D01*
X016335Y015615D01*
X016380Y015615D01*
X018509Y014783D02*
X018599Y014873D01*
X018599Y014603D01*
X018509Y014603D02*
X018689Y014603D01*
X018803Y014512D02*
X018848Y014557D01*
X018848Y014648D01*
X018893Y014603D01*
X018939Y014603D01*
X018984Y014648D01*
X018984Y014738D01*
X019098Y014738D02*
X019188Y014738D01*
X019098Y014873D02*
X019278Y014873D01*
X019098Y014873D02*
X019098Y014603D01*
X018848Y014648D02*
X018848Y014738D01*
X018624Y016115D02*
X018579Y016115D01*
X018579Y016205D01*
X018624Y016250D01*
X018624Y016340D01*
X018579Y016385D01*
X018336Y018257D02*
X018336Y018528D01*
X018472Y018528D01*
X018517Y018483D01*
X018517Y018393D01*
X018472Y018348D01*
X018336Y018348D01*
X018222Y018393D02*
X018222Y018573D01*
X018042Y018393D01*
X018087Y018348D01*
X018177Y018348D01*
X018222Y018393D01*
X018222Y018573D02*
X018177Y018618D01*
X018087Y018618D01*
X018042Y018573D01*
X018042Y018393D01*
X017927Y018573D02*
X017747Y018393D01*
X017747Y018348D01*
X017588Y018348D02*
X017588Y018618D01*
X017453Y018483D01*
X017633Y018483D01*
X017747Y018618D02*
X017927Y018618D01*
X017927Y018573D01*
X018345Y019132D02*
X018390Y019177D01*
X018390Y019268D01*
X018435Y019223D01*
X018480Y019223D01*
X018526Y019268D01*
X018526Y019358D01*
X018640Y019358D02*
X018730Y019358D01*
X018640Y019223D02*
X018640Y019493D01*
X018820Y019493D01*
X018390Y019358D02*
X018390Y019268D01*
X018231Y019223D02*
X018051Y019223D01*
X018231Y019403D01*
X018231Y019448D01*
X018186Y019493D01*
X018096Y019493D01*
X018051Y019448D01*
X017948Y019268D02*
X017948Y019223D01*
X017903Y019223D01*
X017903Y019268D01*
X017948Y019268D01*
X017789Y019223D02*
X017609Y019223D01*
X017789Y019403D01*
X017789Y019448D01*
X017744Y019493D01*
X017654Y019493D01*
X017609Y019448D01*
X018631Y018618D02*
X018811Y018618D01*
X018721Y018483D02*
X018631Y018483D01*
X018631Y018348D02*
X018631Y018618D01*
X019165Y018685D02*
X019165Y018415D01*
X019345Y018415D02*
X019345Y018685D01*
X019255Y018595D01*
X019165Y018685D01*
X019460Y018685D02*
X019550Y018685D01*
X019505Y018685D02*
X019505Y018415D01*
X019460Y018415D02*
X019550Y018415D01*
X019656Y018460D02*
X019701Y018415D01*
X019791Y018415D01*
X019836Y018460D01*
X019951Y018460D02*
X019996Y018415D01*
X020086Y018415D01*
X020131Y018460D01*
X020131Y018550D01*
X020086Y018595D01*
X020041Y018595D01*
X019951Y018550D01*
X019951Y018685D01*
X020131Y018685D01*
X020245Y018640D02*
X020290Y018685D01*
X020381Y018685D01*
X020426Y018640D01*
X020426Y018595D01*
X020245Y018415D01*
X020426Y018415D01*
X020540Y018415D02*
X020720Y018415D01*
X020630Y018415D02*
X020630Y018685D01*
X020540Y018595D01*
X020835Y018595D02*
X020880Y018550D01*
X021015Y018550D01*
X021015Y018460D02*
X021015Y018640D01*
X020970Y018685D01*
X020880Y018685D01*
X020835Y018640D01*
X020835Y018595D01*
X020835Y018460D02*
X020880Y018415D01*
X020970Y018415D01*
X021015Y018460D01*
X019836Y018640D02*
X019791Y018685D01*
X019701Y018685D01*
X019656Y018640D01*
X019656Y018460D01*
X016731Y018340D02*
X016686Y018385D01*
X016596Y018385D01*
X016551Y018340D01*
X016436Y018340D02*
X016436Y018160D01*
X016391Y018115D01*
X016301Y018115D01*
X016256Y018160D01*
X016436Y018340D01*
X016391Y018385D01*
X016301Y018385D01*
X016256Y018340D01*
X016256Y018160D01*
X016142Y018160D02*
X016097Y018115D01*
X016006Y018115D01*
X015961Y018160D01*
X016142Y018340D01*
X016142Y018160D01*
X016142Y018340D02*
X016097Y018385D01*
X016006Y018385D01*
X015961Y018340D01*
X015961Y018160D01*
X015847Y018340D02*
X015667Y018160D01*
X015667Y018115D01*
X015552Y018115D02*
X015552Y018385D01*
X015667Y018385D02*
X015847Y018385D01*
X015847Y018340D01*
X015552Y018115D02*
X015372Y018385D01*
X015372Y018115D01*
X015258Y018115D02*
X015078Y018115D01*
X015258Y018295D01*
X015258Y018340D01*
X015213Y018385D01*
X015123Y018385D01*
X015078Y018340D01*
X013731Y018346D02*
X013686Y018391D01*
X013596Y018391D01*
X013551Y018346D01*
X013436Y018346D02*
X013256Y018166D01*
X013301Y018121D01*
X013391Y018121D01*
X013436Y018166D01*
X013436Y018346D01*
X013391Y018391D01*
X013301Y018391D01*
X013256Y018346D01*
X013256Y018166D01*
X013142Y018166D02*
X013097Y018121D01*
X013006Y018121D01*
X012961Y018166D01*
X013142Y018346D01*
X013142Y018166D01*
X013142Y018346D02*
X013097Y018391D01*
X013006Y018391D01*
X012961Y018346D01*
X012961Y018166D01*
X012847Y018346D02*
X012667Y018166D01*
X012667Y018121D01*
X012552Y018121D02*
X012552Y018391D01*
X012667Y018391D02*
X012847Y018391D01*
X012847Y018346D01*
X012789Y018566D02*
X012698Y018566D01*
X012653Y018611D01*
X012834Y018791D01*
X012834Y018611D01*
X012789Y018566D01*
X012653Y018611D02*
X012653Y018791D01*
X012698Y018836D01*
X012789Y018836D01*
X012834Y018791D01*
X012948Y018836D02*
X012948Y018566D01*
X012948Y018656D02*
X013083Y018746D01*
X013194Y018701D02*
X013194Y018791D01*
X013239Y018836D01*
X013329Y018836D01*
X013374Y018791D01*
X013374Y018701D01*
X013329Y018656D01*
X013329Y018566D01*
X013374Y018566D01*
X013239Y018566D02*
X013239Y018656D01*
X013194Y018701D01*
X013194Y018566D02*
X013239Y018566D01*
X013083Y018566D02*
X012948Y018656D01*
X012539Y018566D02*
X012359Y018566D01*
X012449Y018566D02*
X012449Y018836D01*
X012359Y018746D01*
X012372Y018391D02*
X012552Y018121D01*
X012372Y018121D02*
X012372Y018391D01*
X012258Y018346D02*
X012213Y018391D01*
X012123Y018391D01*
X012078Y018346D01*
X012258Y018346D02*
X012258Y018301D01*
X012078Y018121D01*
X012258Y018121D01*
X013551Y018121D02*
X013731Y018301D01*
X013731Y018346D01*
X013731Y018121D02*
X013551Y018121D01*
X011430Y019165D02*
X011385Y019165D01*
X011385Y019255D01*
X011430Y019300D01*
X011430Y019390D01*
X011385Y019435D01*
X011295Y019435D01*
X011250Y019390D01*
X011250Y019300D01*
X011295Y019255D01*
X011295Y019165D01*
X011250Y019165D01*
X011139Y019165D02*
X011004Y019255D01*
X011139Y019345D01*
X011004Y019435D02*
X011004Y019165D01*
X010890Y019210D02*
X010845Y019165D01*
X010755Y019165D01*
X010710Y019210D01*
X010890Y019390D01*
X010890Y019210D01*
X010890Y019390D02*
X010845Y019435D01*
X010755Y019435D01*
X010710Y019390D01*
X010710Y019210D01*
X010595Y019165D02*
X010415Y019165D01*
X010505Y019165D02*
X010505Y019435D01*
X010415Y019345D01*
X013365Y019965D02*
X013545Y019965D01*
X013455Y019965D02*
X013455Y020235D01*
X013365Y020145D01*
X013660Y020190D02*
X013660Y020010D01*
X013840Y020190D01*
X013840Y020010D01*
X013795Y019965D01*
X013705Y019965D01*
X013660Y020010D01*
X013660Y020190D02*
X013705Y020235D01*
X013795Y020235D01*
X013840Y020190D01*
X013954Y020235D02*
X013954Y019965D01*
X013954Y020055D02*
X014089Y020145D01*
X014200Y020100D02*
X014200Y020190D01*
X014245Y020235D01*
X014335Y020235D01*
X014380Y020190D01*
X014380Y020100D01*
X014335Y020055D01*
X014335Y019965D01*
X014380Y019965D01*
X014245Y019965D02*
X014245Y020055D01*
X014200Y020100D01*
X014200Y019965D02*
X014245Y019965D01*
X014089Y019965D02*
X013954Y020055D01*
X016551Y018115D02*
X016731Y018295D01*
X016731Y018340D01*
X016731Y018115D02*
X016551Y018115D01*
X010751Y016640D02*
X010706Y016685D01*
X010616Y016685D01*
X010571Y016640D01*
X010751Y016640D02*
X010751Y016595D01*
X010571Y016415D01*
X010751Y016415D01*
X023263Y016415D02*
X023443Y016595D01*
X023443Y016640D01*
X023398Y016685D01*
X023443Y016415D02*
X023263Y016415D01*
D11*
X023285Y019848D02*
X023285Y020058D01*
X023390Y020058D01*
X023425Y020023D01*
X023425Y019953D01*
X023390Y019918D01*
X023285Y019918D01*
X023515Y019848D02*
X023586Y019848D01*
X023551Y019848D02*
X023551Y020058D01*
X023586Y020058D02*
X023515Y020058D01*
X023669Y020058D02*
X023809Y019848D01*
X023809Y020058D01*
X023669Y020058D02*
X023669Y019848D01*
X022965Y020058D02*
X022825Y020058D01*
X022895Y020058D02*
X022895Y019848D01*
X022735Y019848D02*
X022735Y020058D01*
X022595Y020058D02*
X022735Y019848D01*
X022595Y019848D02*
X022595Y020058D01*
X022511Y020058D02*
X022441Y020058D01*
X022476Y020058D02*
X022476Y019848D01*
X022441Y019848D02*
X022511Y019848D01*
X016468Y019848D02*
X016468Y020058D01*
X016328Y020058D02*
X016468Y019848D01*
X016328Y019848D02*
X016328Y020058D01*
X016245Y020058D02*
X016175Y020058D01*
X016210Y020058D02*
X016210Y019848D01*
X016175Y019848D02*
X016245Y019848D01*
X016084Y019953D02*
X016049Y019918D01*
X015944Y019918D01*
X015944Y019848D02*
X015944Y020058D01*
X016049Y020058D01*
X016084Y020023D01*
X016084Y019953D01*
X015624Y019918D02*
X015624Y019883D01*
X015589Y019848D01*
X015519Y019848D01*
X015484Y019883D01*
X015519Y019953D02*
X015589Y019953D01*
X015624Y019918D01*
X015624Y020023D02*
X015589Y020058D01*
X015519Y020058D01*
X015484Y020023D01*
X015484Y019988D01*
X015519Y019953D01*
X015394Y020023D02*
X015359Y020058D01*
X015289Y020058D01*
X015254Y020023D01*
X015254Y019883D01*
X015289Y019848D01*
X015359Y019848D01*
X015394Y019883D01*
D12*
X015171Y019890D02*
X014453Y019890D01*
X014390Y019828D01*
X016546Y019890D02*
X017328Y019890D01*
X017390Y019828D01*
X019471Y018200D02*
X019809Y018200D01*
X019321Y017746D02*
X019321Y017534D01*
X019471Y017080D02*
X019809Y017080D01*
X022089Y017351D02*
X022089Y017666D01*
X022325Y017666D01*
X022955Y017666D02*
X023191Y017666D01*
X023191Y017351D01*
X024140Y019828D02*
X024078Y019890D01*
X023984Y019890D01*
X022390Y019890D02*
X022203Y019890D01*
X022140Y019828D01*
X016441Y017666D02*
X016441Y017351D01*
X016441Y017666D02*
X016205Y017666D01*
X015575Y017666D02*
X015339Y017666D01*
X015339Y017351D01*
X014941Y017351D02*
X014941Y017666D01*
X014705Y017666D01*
X014075Y017666D02*
X013839Y017666D01*
X013839Y017351D01*
X013441Y017351D02*
X013441Y017666D01*
X013205Y017666D01*
X012575Y017666D02*
X012339Y017666D01*
X012339Y017351D01*
X011941Y017351D02*
X011941Y017666D01*
X011705Y017666D01*
X011075Y017666D02*
X010839Y017666D01*
X010839Y017351D01*
X025940Y005028D02*
X025940Y003128D01*
X026240Y003378D02*
X026390Y003228D01*
X026540Y003378D01*
X026390Y003228D02*
X026390Y003578D01*
X026840Y003128D02*
X026840Y005028D01*
D13*
X025047Y008931D02*
X025047Y015349D01*
X019733Y015349D01*
X019733Y008931D01*
X025047Y008931D01*
D14*
X025371Y010024D02*
X025373Y010040D01*
X025378Y010055D01*
X025387Y010069D01*
X025399Y010080D01*
X025413Y010088D01*
X025429Y010093D01*
X025445Y010094D01*
X025461Y010091D01*
X025476Y010085D01*
X025489Y010075D01*
X025499Y010062D01*
X025507Y010048D01*
X025511Y010032D01*
X025511Y010016D01*
X025507Y010000D01*
X025499Y009986D01*
X025489Y009973D01*
X025476Y009963D01*
X025461Y009957D01*
X025445Y009954D01*
X025429Y009955D01*
X025413Y009960D01*
X025399Y009968D01*
X025387Y009979D01*
X025378Y009993D01*
X025373Y010008D01*
X025371Y010024D01*
D15*
X020690Y008365D02*
X020590Y008365D01*
X020590Y008165D02*
X020690Y008165D01*
X018990Y009840D02*
X018990Y009940D01*
X018790Y009940D02*
X018790Y009840D01*
X018840Y014165D02*
X018940Y014165D01*
X018940Y014365D02*
X018840Y014365D01*
X018190Y016540D02*
X018090Y016540D01*
X018090Y016740D02*
X018190Y016740D01*
X018190Y017165D02*
X018090Y017165D01*
X018090Y017365D02*
X018190Y017365D01*
X018190Y017915D02*
X018090Y017915D01*
X018090Y018115D02*
X018190Y018115D01*
X018190Y018790D02*
X018090Y018790D01*
X018090Y018990D02*
X018190Y018990D01*
X016990Y017440D02*
X016990Y017340D01*
X016790Y017340D02*
X016790Y017440D01*
X015940Y016240D02*
X015840Y016240D01*
X015840Y016040D02*
X015940Y016040D01*
X014440Y016040D02*
X014340Y016040D01*
X014340Y016240D02*
X014440Y016240D01*
X012940Y016240D02*
X012840Y016240D01*
X012840Y016040D02*
X012940Y016040D01*
X011440Y016040D02*
X011340Y016040D01*
X011340Y016240D02*
X011440Y016240D01*
X011790Y019340D02*
X011790Y019440D01*
X011990Y019440D02*
X011990Y019340D01*
X012790Y019340D02*
X012790Y019440D01*
X012990Y019440D02*
X012990Y019340D01*
X013790Y019340D02*
X013790Y019440D01*
X013990Y019440D02*
X013990Y019340D01*
X023540Y017440D02*
X023540Y017340D01*
X023740Y017340D02*
X023740Y017440D01*
X025840Y015740D02*
X025940Y015740D01*
X025940Y015540D02*
X025840Y015540D01*
D16*
X026590Y013590D02*
X027190Y013590D01*
X027207Y013588D01*
X027224Y013584D01*
X027240Y013577D01*
X027254Y013567D01*
X027267Y013554D01*
X027277Y013540D01*
X027284Y013524D01*
X027288Y013507D01*
X027290Y013490D01*
X027290Y011790D01*
X027288Y011773D01*
X027284Y011756D01*
X027277Y011740D01*
X027267Y011726D01*
X027254Y011713D01*
X027240Y011703D01*
X027224Y011696D01*
X027207Y011692D01*
X027190Y011690D01*
X026590Y011690D01*
X026573Y011692D01*
X026556Y011696D01*
X026540Y011703D01*
X026526Y011713D01*
X026513Y011726D01*
X026503Y011740D01*
X026496Y011756D01*
X026492Y011773D01*
X026490Y011790D01*
X026490Y013490D01*
X026492Y013507D01*
X026496Y013524D01*
X026503Y013540D01*
X026513Y013554D01*
X026526Y013567D01*
X026540Y013577D01*
X026556Y013584D01*
X026573Y013588D01*
X026590Y013590D01*
X023940Y018490D02*
X023340Y018490D01*
X023323Y018492D01*
X023306Y018496D01*
X023290Y018503D01*
X023276Y018513D01*
X023263Y018526D01*
X023253Y018540D01*
X023246Y018556D01*
X023242Y018573D01*
X023240Y018590D01*
X023240Y019690D01*
X023242Y019707D01*
X023246Y019724D01*
X023253Y019740D01*
X023263Y019754D01*
X023276Y019767D01*
X023290Y019777D01*
X023306Y019784D01*
X023323Y019788D01*
X023340Y019790D01*
X023940Y019790D01*
X023957Y019788D01*
X023974Y019784D01*
X023990Y019777D01*
X024004Y019767D01*
X024017Y019754D01*
X024027Y019740D01*
X024034Y019724D01*
X024038Y019707D01*
X024040Y019690D01*
X024040Y018590D01*
X024038Y018573D01*
X024034Y018556D01*
X024027Y018540D01*
X024017Y018526D01*
X024004Y018513D01*
X023990Y018503D01*
X023974Y018496D01*
X023957Y018492D01*
X023940Y018490D01*
X023040Y018590D02*
X023040Y019690D01*
X023038Y019707D01*
X023034Y019724D01*
X023027Y019740D01*
X023017Y019754D01*
X023004Y019767D01*
X022990Y019777D01*
X022974Y019784D01*
X022957Y019788D01*
X022940Y019790D01*
X022340Y019790D01*
X022323Y019788D01*
X022306Y019784D01*
X022290Y019777D01*
X022276Y019767D01*
X022263Y019754D01*
X022253Y019740D01*
X022246Y019724D01*
X022242Y019707D01*
X022240Y019690D01*
X022240Y018590D01*
X022242Y018573D01*
X022246Y018556D01*
X022253Y018540D01*
X022263Y018526D01*
X022276Y018513D01*
X022290Y018503D01*
X022306Y018496D01*
X022323Y018492D01*
X022340Y018490D01*
X022940Y018490D01*
X022957Y018492D01*
X022974Y018496D01*
X022990Y018503D01*
X023004Y018513D01*
X023017Y018526D01*
X023027Y018540D01*
X023034Y018556D01*
X023038Y018573D01*
X023040Y018590D01*
X017290Y018590D02*
X017290Y019690D01*
X017288Y019707D01*
X017284Y019724D01*
X017277Y019740D01*
X017267Y019754D01*
X017254Y019767D01*
X017240Y019777D01*
X017224Y019784D01*
X017207Y019788D01*
X017190Y019790D01*
X016590Y019790D01*
X016573Y019788D01*
X016556Y019784D01*
X016540Y019777D01*
X016526Y019767D01*
X016513Y019754D01*
X016503Y019740D01*
X016496Y019724D01*
X016492Y019707D01*
X016490Y019690D01*
X016490Y018590D01*
X016492Y018573D01*
X016496Y018556D01*
X016503Y018540D01*
X016513Y018526D01*
X016526Y018513D01*
X016540Y018503D01*
X016556Y018496D01*
X016573Y018492D01*
X016590Y018490D01*
X017190Y018490D01*
X017207Y018492D01*
X017224Y018496D01*
X017240Y018503D01*
X017254Y018513D01*
X017267Y018526D01*
X017277Y018540D01*
X017284Y018556D01*
X017288Y018573D01*
X017290Y018590D01*
X016290Y018590D02*
X016290Y019690D01*
X016288Y019707D01*
X016284Y019724D01*
X016277Y019740D01*
X016267Y019754D01*
X016254Y019767D01*
X016240Y019777D01*
X016224Y019784D01*
X016207Y019788D01*
X016190Y019790D01*
X015590Y019790D01*
X015573Y019788D01*
X015556Y019784D01*
X015540Y019777D01*
X015526Y019767D01*
X015513Y019754D01*
X015503Y019740D01*
X015496Y019724D01*
X015492Y019707D01*
X015490Y019690D01*
X015490Y018590D01*
X015492Y018573D01*
X015496Y018556D01*
X015503Y018540D01*
X015513Y018526D01*
X015526Y018513D01*
X015540Y018503D01*
X015556Y018496D01*
X015573Y018492D01*
X015590Y018490D01*
X016190Y018490D01*
X016207Y018492D01*
X016224Y018496D01*
X016240Y018503D01*
X016254Y018513D01*
X016267Y018526D01*
X016277Y018540D01*
X016284Y018556D01*
X016288Y018573D01*
X016290Y018590D01*
X015290Y018590D02*
X015290Y019690D01*
X015288Y019707D01*
X015284Y019724D01*
X015277Y019740D01*
X015267Y019754D01*
X015254Y019767D01*
X015240Y019777D01*
X015224Y019784D01*
X015207Y019788D01*
X015190Y019790D01*
X014590Y019790D01*
X014573Y019788D01*
X014556Y019784D01*
X014540Y019777D01*
X014526Y019767D01*
X014513Y019754D01*
X014503Y019740D01*
X014496Y019724D01*
X014492Y019707D01*
X014490Y019690D01*
X014490Y018590D01*
X014492Y018573D01*
X014496Y018556D01*
X014503Y018540D01*
X014513Y018526D01*
X014526Y018513D01*
X014540Y018503D01*
X014556Y018496D01*
X014573Y018492D01*
X014590Y018490D01*
X015190Y018490D01*
X015207Y018492D01*
X015224Y018496D01*
X015240Y018503D01*
X015254Y018513D01*
X015267Y018526D01*
X015277Y018540D01*
X015284Y018556D01*
X015288Y018573D01*
X015290Y018590D01*
D17*
X024804Y018462D02*
X024804Y018318D01*
X024994Y018299D01*
X025015Y018235D01*
X025046Y018175D01*
X024925Y018026D01*
X025026Y017925D01*
X025175Y018046D01*
X025235Y018015D01*
X025319Y018219D01*
X025282Y018241D01*
X025250Y018270D01*
X025226Y018306D01*
X025211Y018347D01*
X025205Y018390D01*
X025211Y018434D01*
X025226Y018475D01*
X025251Y018512D01*
X025284Y018541D01*
X025323Y018562D01*
X025366Y018573D01*
X025410Y018573D01*
X025453Y018563D01*
X025492Y018543D01*
X025526Y018515D01*
X025552Y018479D01*
X025568Y018438D01*
X025574Y018394D01*
X025570Y018350D01*
X025555Y018308D01*
X025531Y018271D01*
X025499Y018241D01*
X025461Y018219D01*
X025545Y018015D01*
X025605Y018046D01*
X025754Y017925D01*
X025855Y018026D01*
X025734Y018175D01*
X025765Y018235D01*
X025786Y018299D01*
X025976Y018318D01*
X025976Y018462D01*
X025786Y018481D01*
X025765Y018545D01*
X025734Y018605D01*
X025855Y018754D01*
X025754Y018855D01*
X025605Y018734D01*
X025545Y018765D01*
X025481Y018786D01*
X025462Y018976D01*
X025318Y018976D01*
X025299Y018786D01*
X025235Y018765D01*
X025175Y018734D01*
X025026Y018855D01*
X024925Y018754D01*
X025046Y018605D01*
X025015Y018545D01*
X024994Y018481D01*
X024804Y018462D01*
X024804Y018425D02*
X025210Y018425D01*
X025208Y018367D02*
X024804Y018367D01*
X024888Y018309D02*
X025224Y018309D01*
X025269Y018252D02*
X025009Y018252D01*
X025036Y018194D02*
X025309Y018194D01*
X025285Y018137D02*
X025015Y018137D01*
X024968Y018079D02*
X025261Y018079D01*
X025237Y018022D02*
X025221Y018022D01*
X025145Y018022D02*
X024929Y018022D01*
X024987Y017964D02*
X025075Y017964D01*
X025495Y018137D02*
X025765Y018137D01*
X025744Y018194D02*
X025471Y018194D01*
X025511Y018252D02*
X025771Y018252D01*
X025892Y018309D02*
X025556Y018309D01*
X025572Y018367D02*
X025976Y018367D01*
X025976Y018425D02*
X025570Y018425D01*
X025549Y018482D02*
X025785Y018482D01*
X025767Y018540D02*
X025497Y018540D01*
X025283Y018540D02*
X025013Y018540D01*
X024995Y018482D02*
X025231Y018482D01*
X025042Y018597D02*
X025738Y018597D01*
X025775Y018655D02*
X025005Y018655D01*
X024958Y018712D02*
X025822Y018712D01*
X025839Y018770D02*
X025649Y018770D01*
X025719Y018827D02*
X025781Y018827D01*
X025530Y018770D02*
X025250Y018770D01*
X025303Y018827D02*
X025477Y018827D01*
X025471Y018885D02*
X025309Y018885D01*
X025315Y018943D02*
X025465Y018943D01*
X025131Y018770D02*
X024941Y018770D01*
X024999Y018827D02*
X025061Y018827D01*
X025519Y018079D02*
X025812Y018079D01*
X025851Y018022D02*
X025635Y018022D01*
X025559Y018022D02*
X025543Y018022D01*
X025705Y017964D02*
X025793Y017964D01*
M02*
